<?xml version="1.0" encoding="UTF-8" standalone="no"?>
<!-- Created with Inkscape (http://www.inkscape.org/) -->

<svg
   width="210mm"
   height="297mm"
   viewBox="0 0 210 297"
   version="1.1"
   id="svg1"
   inkscape:version="1.3.2 (091e20e, 2023-11-25, custom)"
   sodipodi:docname="BASE.svg"
   xmlns:inkscape="http://www.inkscape.org/namespaces/inkscape"
   xmlns:sodipodi="http://sodipodi.sourceforge.net/DTD/sodipodi-0.dtd"
   xmlns="http://www.w3.org/2000/svg"
   xmlns:svg="http://www.w3.org/2000/svg">
  <sodipodi:namedview
     id="namedview1"
     pagecolor="#ffffff"
     bordercolor="#000000"
     borderopacity="0.25"
     inkscape:showpageshadow="2"
     inkscape:pageopacity="0.0"
     inkscape:pagecheckerboard="0"
     inkscape:deskcolor="#d1d1d1"
     inkscape:document-units="mm"
     inkscape:zoom="0.51717104"
     inkscape:cx="171.12327"
     inkscape:cy="454.39513"
     inkscape:window-width="1412"
     inkscape:window-height="1040"
     inkscape:window-x="1578"
     inkscape:window-y="34"
     inkscape:window-maximized="0"
     inkscape:current-layer="layer1" />
  <defs
     id="defs1" />
  <g
     inkscape:label="Layer 1"
     inkscape:groupmode="layer"
     id="layer1">
    <path
       d="m 81.530216,106.3198 h 11.999992 v 3 H 81.530216 Z"
       style="fill:none;stroke:#000000;stroke-width:0.2;stroke-opacity:1;stroke-dasharray:none"
       id="path5" />
    <path
       d="m 136.53021,142.3198 v 11.99999 h -3 V 142.3198 Z"
       style="fill:none;stroke:#000000;stroke-width:0.2;stroke-opacity:1;stroke-dasharray:none"
       id="path6" />
    <path
       d="m 103.53021,142.3198 h 3.00001 v 11.99999 h -3.00001 z"
       style="fill:none;stroke:#000000;stroke-width:0.2;stroke-opacity:1;stroke-dasharray:none"
       id="path7" />
    <path
       d="m 135.03021,125.11979 h 10.00001 v -2.99998 h -10.00001 z"
       style="fill:none;stroke:#000000;stroke-width:0.2;stroke-opacity:1;stroke-dasharray:none"
       id="path8" />
    <path
       d="m 33.030213,122.81979 h 3.000005 v 12.00002 h -3.000005 z"
       style="fill:none;stroke:#000000;stroke-width:0.2;stroke-opacity:1;stroke-dasharray:none"
       id="path9" />
    <path
       d="m 46.530207,133.30981 a 1.5000025,1.5000025 0 0 0 -3.000005,0 1.5000025,1.5000025 0 0 0 3.000005,0 z"
       style="fill:none;stroke:#000000;stroke-width:0.2;stroke-opacity:1;stroke-dasharray:none"
       id="path10" />
    <path
       d="m 70.730215,133.30981 a 1.5000023,1.5000023 0 0 0 -3.000004,0 1.5000023,1.5000023 0 0 0 3.000004,0 z"
       style="fill:none;stroke:#000000;stroke-width:0.2;stroke-opacity:1;stroke-dasharray:none"
       id="path11" />
    <path
       d="M 61.530203,109.3198 H 49.530212 v -3 h 11.999991 z"
       style="fill:none;stroke:#000000;stroke-width:0.2;stroke-opacity:1;stroke-dasharray:none"
       id="path12" />
    <path
       d="m 35.780213,107.8198 a 1.25,1.25 0 0 0 -2.499995,0 1.25,1.25 0 0 0 2.499995,0 z"
       style="fill:none;stroke:#000000;stroke-width:0.2;stroke-opacity:1;stroke-dasharray:none"
       id="path13" />
    <path
       d="m 70.730215,163.3298 a 1.5000023,1.5000023 0 0 0 -3.000004,0 1.5000023,1.5000023 0 0 0 3.000004,0 z"
       style="fill:none;stroke:#000000;stroke-width:0.2;stroke-opacity:1;stroke-dasharray:none"
       id="path14" />
    <path
       d="m 145.03022,174.5198 h -10.00001 v -3 h 10.00001 z"
       style="fill:none;stroke:#000000;stroke-width:0.2;stroke-opacity:1;stroke-dasharray:none"
       id="path15" />
    <path
       d="m 81.530216,187.31981 v 2.99998 h 11.999992 v -2.99998 z"
       style="fill:none;stroke:#000000;stroke-width:0.2;stroke-opacity:1;stroke-dasharray:none"
       id="path16" />
    <path
       d="M 61.530203,187.31981 H 49.530212 v 2.99998 h 11.999991 z"
       style="fill:none;stroke:#000000;stroke-width:0.2;stroke-opacity:1;stroke-dasharray:none"
       id="path18" />
    <path
       d="m 46.530207,163.3298 a 1.5000025,1.5000025 0 0 0 -3.000005,0 1.5000025,1.5000025 0 0 0 3.000005,0 z"
       style="fill:none;stroke:#000000;stroke-width:0.2;stroke-opacity:1;stroke-dasharray:none"
       id="path19" />
    <path
       d="M 36.030218,173.81979 V 161.8198 h -3.000005 v 11.99999 z"
       style="fill:none;stroke:#000000;stroke-width:0.2;stroke-opacity:1;stroke-dasharray:none"
       id="path20" />
    <path
       d="m 106.53022,188.81979 a 1.500005,1.500005 0 0 0 -3.00001,0 1.500005,1.500005 0 0 0 3.00001,0 z"
       style="fill:none;stroke:#000000;stroke-width:0.2;stroke-opacity:1;stroke-dasharray:none"
       id="path22" />
    <path
       d="m 35.780213,188.81979 a 1.25,1.25 0 0 0 -2.499995,0 1.25,1.25 0 0 0 2.499995,0 z"
       style="fill:none;stroke:#000000;stroke-width:0.2;stroke-opacity:1;stroke-dasharray:none"
       id="path23" />
    <path
       d="M 30.030208,190.31979 V 106.3198 a 3,3 0 0 1 3.000005,-3.00001 H 177.03022 a 3,3 0 0 1 2.99998,3.00001 v 83.99999 a 3,3 0 0 1 -2.99998,3 H 33.030213 a 3,3 0 0 1 -3.000005,-3 z"
       style="fill:none;stroke:#000000;stroke-width:0.2;stroke-opacity:1;stroke-dasharray:none"
       id="path25" />
    <path
       d="m 172.33021,148.31981 a 0.80000739,0.80000739 0 0 0 -1.60001,0 0.80000739,0.80000739 0 0 0 1.60001,0 z"
       style="fill:none;stroke:#000000;stroke-width:0.2;stroke-opacity:1;stroke-dasharray:none"
       id="path26" />
    <path
       d="m 150.8302,173.0198 a 0.79999998,0.79999998 0 0 0 -1.59999,0 0.79999998,0.79999998 0 0 0 1.59999,0 z"
       style="fill:none;stroke:#000000;stroke-width:0.2;stroke-opacity:1;stroke-dasharray:none"
       id="path27" />
    <path
       d="m 166.5302,142.3198 v 11.99999 h -3 V 142.3198 Z"
       style="fill:none;stroke:#000000;stroke-width:0.2;stroke-opacity:1;stroke-dasharray:none"
       id="path28" />
    <path
       d="m 155.03022,171.5198 h 9.99998 v 3 h -9.99998 z"
       style="fill:none;stroke:#000000;stroke-width:0.2;stroke-opacity:1;stroke-dasharray:none"
       id="path29" />
    <path
       d="m 170.03022,122.31981 h 2.99998 v 9.99998 h -2.99998 z"
       style="fill:none;stroke:#000000;stroke-width:0.2;stroke-opacity:1;stroke-dasharray:none"
       id="path30" />
    <path
       d="m 165.0302,125.11979 v -2.99998 h -9.99998 v 2.99998 z"
       style="fill:none;stroke:#000000;stroke-width:0.2;stroke-opacity:1;stroke-dasharray:none"
       id="path31" />
    <path
       d="m 172.33021,112.7198 a 0.80000739,0.80000739 0 0 0 -1.60001,0 0.80000739,0.80000739 0 0 0 1.60001,0 z"
       style="fill:none;stroke:#000000;stroke-width:0.2;stroke-opacity:1;stroke-dasharray:none"
       id="path32" />
    <path
       d="m 176.78021,107.8198 a 1.25,1.25 0 0 0 -2.49999,0 1.25,1.25 0 0 0 2.49999,0 z"
       style="fill:none;stroke:#000000;stroke-width:0.2;stroke-opacity:1;stroke-dasharray:none"
       id="path33" />
    <path
       d="m 150.8302,123.61979 a 0.79999998,0.79999998 0 0 0 -1.59999,0 0.79999998,0.79999998 0 0 0 1.59999,0 z"
       style="fill:none;stroke:#000000;stroke-width:0.2;stroke-opacity:1;stroke-dasharray:none"
       id="path34" />
    <path
       d="m 170.03022,174.3198 h 2.99998 v -10 h -2.99998 z"
       style="fill:none;stroke:#000000;stroke-width:0.2;stroke-opacity:1;stroke-dasharray:none"
       id="path35" />
    <path
       d="m 106.53022,107.8198 a 1.500005,1.500005 0 0 0 -3.00001,0 1.500005,1.500005 0 0 0 3.00001,0 z"
       style="fill:none;stroke:#000000;stroke-width:0.2;stroke-opacity:1;stroke-dasharray:none"
       id="path41" />
    <path
       d="m 172.33021,183.91981 a 0.80000739,0.80000739 0 0 0 -1.60001,0 0.80000739,0.80000739 0 0 0 1.60001,0 z"
       style="fill:none;stroke:#000000;stroke-width:0.2;stroke-opacity:1;stroke-dasharray:none"
       id="path43" />
    <path
       d="m 176.78021,188.81979 a 1.25,1.25 0 0 0 -2.49999,0 1.25,1.25 0 0 0 2.49999,0 z"
       style="fill:none;stroke:#000000;stroke-width:0.2;stroke-opacity:1;stroke-dasharray:none"
       id="path45" />
  </g>
</svg>
