<?xml version="1.0" encoding="UTF-8" standalone="no"?>
<svg
   viewBox="0 0 1122.5196 793.70083"
   width="1122.5197"
   height="793.70081"
   version="1.1"
   id="svg45"
   sodipodi:docname="layout.svg"
   inkscape:version="1.3.2 (091e20e, 2023-11-25, custom)"
   xmlns:inkscape="http://www.inkscape.org/namespaces/inkscape"
   xmlns:sodipodi="http://sodipodi.sourceforge.net/DTD/sodipodi-0.dtd"
   xmlns="http://www.w3.org/2000/svg"
   xmlns:svg="http://www.w3.org/2000/svg">
  <sodipodi:namedview
     id="namedview45"
     pagecolor="#ffffff"
     bordercolor="#000000"
     borderopacity="0.25"
     inkscape:showpageshadow="2"
     inkscape:pageopacity="0.0"
     inkscape:pagecheckerboard="0"
     inkscape:deskcolor="#d1d1d1"
     inkscape:zoom="0.73139031"
     inkscape:cx="774.55223"
     inkscape:cy="453.24636"
     inkscape:window-width="1412"
     inkscape:window-height="1041"
     inkscape:window-x="1559"
     inkscape:window-y="140"
     inkscape:window-maximized="0"
     inkscape:current-layer="g45" />
  <desc
     id="desc1">レイアウト.dxf - scale = 1.000000, origin = (0.000000, 0.000000), method = manual</desc>
  <defs
     id="defs4">
    <marker
       id="DistanceX"
       orient="auto"
       refX="0"
       refY="0"
       style="overflow:visible">
      <path
         d="M 3,-3 -3,3 M 0,-5 V 5"
         style="stroke:#000000;stroke-width:0.5"
         id="path1" />
    </marker>
    <pattern
       id="Hatch"
       patternUnits="userSpaceOnUse"
       width="8"
       height="8"
       x="0"
       y="0">
      <path
         d="M8 4 l-4,4"
         stroke="#000000"
         stroke-width="0.25"
         linecap="square"
         id="path2" />
      <path
         d="M6 2 l-4,4"
         stroke="#000000"
         stroke-width="0.25"
         linecap="square"
         id="path3" />
      <path
         d="M4 0 l-4,4"
         stroke="#000000"
         stroke-width="0.25"
         linecap="square"
         id="path4" />
    </pattern>
    <symbol
       id="*MODEL_SPACE" />
    <symbol
       id="*PAPER_SPACE" />
  </defs>
  <g
     inkscape:groupmode="layer"
     inkscape:label="0"
     id="g45">
    <path
       d="m 314.30964,132.40106 h 45.3543 v 11.3386 h -45.3543 z"
       style="fill:none;stroke:#000000"
       id="path5" />
    <path
       d="m 522.18364,268.46406 v 45.3543 h -11.3386 v -45.3543 z"
       style="fill:none;stroke:#000000"
       id="path6" />
    <path
       d="m 397.45924,268.46406 h 11.3386 v 45.3543 h -11.3386 z"
       style="fill:none;stroke:#000000"
       id="path7" />
    <path
       d="m 516.51434,203.45616 h 37.7953 v -11.3385 h -37.7953 z"
       style="fill:none;stroke:#000000"
       id="path8" />
    <path
       d="m 131.00254,194.76326 h 11.3386 v 45.3544 h -11.3386 z"
       style="fill:none;stroke:#000000"
       id="path9" />
    <path
       d="m 182.02614,234.41056 a 5.6693,5.6693 0 0 0 -11.3386,0 5.6693,5.6693 0 0 0 11.3386,0 z"
       style="fill:none;stroke:#000000"
       id="path10" />
    <path
       d="m 273.49074,234.41056 a 5.6693,5.6693 0 0 0 -11.3386,0 5.6693,5.6693 0 0 0 11.3386,0 z"
       style="fill:none;stroke:#000000"
       id="path11" />
    <path
       d="m 238.71904,143.73966 h -45.3543 v -11.3386 h 45.3543 z"
       style="fill:none;stroke:#000000"
       id="path12" />
    <path
       d="m 141.39624,138.07036 a 4.7244095,4.7244095 0 0 0 -9.4488,0 4.7244095,4.7244095 0 0 0 9.4488,0 z"
       style="fill:none;stroke:#000000"
       id="path13" />
    <path
       d="m 273.49074,347.87196 a 5.6693,5.6693 0 0 0 -11.3386,0 5.6693,5.6693 0 0 0 11.3386,0 z"
       style="fill:none;stroke:#000000"
       id="path14" />
    <path
       d="m 554.30964,390.16486 h -37.7953 v -11.3386 h 37.7953 z"
       style="fill:none;stroke:#000000"
       id="path15" />
    <path
       d="m 314.30964,438.54286 v 11.3385 h 45.3543 v -11.3385 z"
       style="fill:none;stroke:#000000"
       id="path16" />
    <path
       d="m 534.27814,545.83926 a 5.6693,5.6693 0 0 0 -11.3386,0 5.6693,5.6693 0 0 0 11.3386,0 z"
       style="fill:none;stroke:#000000"
       id="path17" />
    <path
       d="m 238.71904,438.54286 h -45.3543 v 11.3385 h 45.3543 z"
       style="fill:none;stroke:#000000"
       id="path18" />
    <path
       d="m 182.02614,347.87196 a 5.6693,5.6693 0 0 0 -11.3386,0 5.6693,5.6693 0 0 0 11.3386,0 z"
       style="fill:none;stroke:#000000"
       id="path19" />
    <path
       d="m 142.34114,387.51916 v -45.3543 h -11.3386 v 45.3543 z"
       style="fill:none;stroke:#000000"
       id="path20" />
    <path
       d="m 497.61674,621.42976 v -85.0394 h 18.8976 v -8.5039 l 2.8346,-2.8346 h 32.126 l 2.8347,2.8346 v 8.5039 h 15.874 v 6.8977 h -1.7953 v 5.8582 h 1.7953 v 6.8977 h 6.0472 v -6.8977 h 1.7953 v -5.8582 h -1.7953 v -6.8977 h 15.8741 v -8.5039 l 2.8346,-2.8346 h 32.126 l 2.8346,2.8346 v 8.5039 h 18.8977 v 33.0709 h 8.5039 l 2.8346,2.8346 v 13.2284 l -2.8346,2.8346 h -8.5039 v 33.0709 z"
       style="fill:none;stroke:#000000"
       id="path21" />
    <path
       d="m 408.79784,444.21206 a 5.6693,5.6693 0 0 0 -11.3386,0 5.6693,5.6693 0 0 0 11.3386,0 z"
       style="fill:none;stroke:#000000"
       id="path22" />
    <path
       d="m 141.39624,444.21206 a 4.7244095,4.7244095 0 0 0 -9.4488,0 4.7244095,4.7244095 0 0 0 9.4488,0 z"
       style="fill:none;stroke:#000000"
       id="path23" />
    <path
       d="m 534.27814,611.98096 a 5.6693,5.6693 0 0 0 -11.3386,0 5.6693,5.6693 0 0 0 11.3386,0 z"
       style="fill:none;stroke:#000000"
       id="path24" />
    <path
       d="m 119.66394,449.88136 v -317.4803 a 11.338583,11.338583 0 0 1 11.3386,-11.3386 h 544.252 a 11.338583,11.338583 0 0 1 11.3385,11.3386 v 317.4803 a 11.338583,11.338583 0 0 1 -11.3385,11.3386 h -544.252 a 11.338583,11.338583 0 0 1 -11.3386,-11.3386 z"
       style="fill:none;stroke:#000000"
       id="path25" />
    <path
       d="m 657.49074,291.14126 a 3.02365,3.02365 0 0 0 -6.0473,0 3.02365,3.02365 0 0 0 6.0473,0 z"
       style="fill:none;stroke:#000000"
       id="path26" />
    <path
       d="m 576.23084,384.49556 a 3.023622,3.023622 0 0 0 -6.0472,0 3.023622,3.023622 0 0 0 6.0472,0 z"
       style="fill:none;stroke:#000000"
       id="path27" />
    <path
       d="m 635.56944,268.46406 v 45.3543 h -11.3386 v -45.3543 z"
       style="fill:none;stroke:#000000"
       id="path28" />
    <path
       d="m 592.10494,378.82626 h 37.7952 v 11.3386 h -37.7952 z"
       style="fill:none;stroke:#000000"
       id="path29" />
    <path
       d="m 648.79784,192.87356 h 11.3385 v 37.7952 h -11.3385 z"
       style="fill:none;stroke:#000000"
       id="path30" />
    <path
       d="m 629.90014,203.45616 v -11.3385 h -37.7952 v 11.3385 z"
       style="fill:none;stroke:#000000"
       id="path31" />
    <path
       d="m 657.49074,156.59006 a 3.02365,3.02365 0 0 0 -6.0473,0 3.02365,3.02365 0 0 0 6.0473,0 z"
       style="fill:none;stroke:#000000"
       id="path32" />
    <path
       d="m 674.30964,138.07036 a 4.7244095,4.7244095 0 0 0 -9.4488,0 4.7244095,4.7244095 0 0 0 9.4488,0 z"
       style="fill:none;stroke:#000000"
       id="path33" />
    <path
       d="m 576.23084,197.78686 a 3.023622,3.023622 0 0 0 -6.0472,0 3.023622,3.023622 0 0 0 6.0472,0 z"
       style="fill:none;stroke:#000000"
       id="path34" />
    <path
       d="m 648.79784,389.40896 h 11.3385 v -37.7953 h -11.3385 z"
       style="fill:none;stroke:#000000"
       id="path35" />
    <path
       d="m 828.87844,195.70816 v 32.126 l 2.8347,2.8346 h 8.5039 v 57.4489 h 6.8976 v -1.7953 h 5.8583 v 1.7953 h 6.8977 v 6.0472 h -6.8977 v 1.7953 h -5.8583 v -1.7953 h -6.8976 v 57.4488 h -8.5039 l -2.8347,2.8347 v 32.1259 l 2.8347,2.8347 h 8.5039 v 33.2598 h 6.8976 v -1.7952 h 5.8583 v 1.7952 h 6.8977 v 6.0473 h -6.8977 v 1.7953 h -5.8583 v -1.7953 h -6.8976 v 32.5039 h 85.0394 v -340.1575 h -85.0394 v 32.504 h 6.8976 v -1.7953 h 5.8583 v 1.7953 h 6.8977 v 6.0472 h -6.8977 v 1.7953 h -5.8583 v -1.7953 h -6.8976 v 33.2599 h -8.5039 z"
       style="fill:none;stroke:#000000"
       id="path36" />
    <path
       d="m 892.18554,162.25936 h -18.8976 v -11.3386 h 18.8976 z"
       style="fill:none;stroke:#000000"
       id="path37" />
    <path
       d="m 892.18554,378.82626 h -18.8976 v 11.3386 h 18.8976 z"
       style="fill:none;stroke:#000000"
       id="path38" />
    <path
       d="m 892.18554,431.36166 v -11.3385 h -18.8976 v 11.3385 z"
       style="fill:none;stroke:#000000"
       id="path39" />
    <path
       d="m 873.28794,203.45616 v -11.3385 h 18.8976 v 11.3385 z"
       style="fill:none;stroke:#000000"
       id="path40" />
    <path
       d="m 408.79784,138.07036 a 5.6693,5.6693 0 0 0 -11.3386,0 5.6693,5.6693 0 0 0 11.3386,0 z"
       style="fill:none;stroke:#000000"
       id="path41" />
    <path
       d="m 571.88444,578.91006 a 6.6142,6.6142 0 0 0 -13.2284,0 6.6142,6.6142 0 0 0 13.2284,0 z"
       style="fill:none;stroke:#000000"
       id="path42" />
    <path
       d="m 657.49074,425.69246 a 3.02365,3.02365 0 0 0 -6.0473,0 3.02365,3.02365 0 0 0 6.0473,0 z"
       style="fill:none;stroke:#000000"
       id="path43" />
    <path
       d="m 617.42774,578.91006 a 10.96065,10.96065 0 0 0 -21.9213,0 10.96065,10.96065 0 0 0 21.9213,0 z"
       style="fill:none;stroke:#000000"
       id="path44" />
    <path
       d="m 674.30964,444.21206 a 4.7244095,4.7244095 0 0 0 -9.4488,0 4.7244095,4.7244095 0 0 0 9.4488,0 z"
       style="fill:none;stroke:#000000"
       id="path45" />
  </g>
</svg>
