<?xml version="1.0" encoding="UTF-8" standalone="no"?>
<!-- Created with Inkscape (http://www.inkscape.org/) -->

<svg
   width="210mm"
   height="297mm"
   viewBox="0 0 210 297"
   version="1.1"
   id="svg1"
   inkscape:version="1.3.2 (091e20e, 2023-11-25, custom)"
   sodipodi:docname="Side.svg"
   xmlns:inkscape="http://www.inkscape.org/namespaces/inkscape"
   xmlns:sodipodi="http://sodipodi.sourceforge.net/DTD/sodipodi-0.dtd"
   xmlns="http://www.w3.org/2000/svg"
   xmlns:svg="http://www.w3.org/2000/svg">
  <sodipodi:namedview
     id="namedview1"
     pagecolor="#ffffff"
     bordercolor="#000000"
     borderopacity="0.25"
     inkscape:showpageshadow="2"
     inkscape:pageopacity="0.0"
     inkscape:pagecheckerboard="0"
     inkscape:deskcolor="#d1d1d1"
     inkscape:document-units="mm"
     inkscape:zoom="0.73139029"
     inkscape:cx="396.50513"
     inkscape:cy="560.57621"
     inkscape:window-width="1412"
     inkscape:window-height="1040"
     inkscape:window-x="1525"
     inkscape:window-y="90"
     inkscape:window-maximized="0"
     inkscape:current-layer="layer1" />
  <defs
     id="defs1" />
  <g
     inkscape:label="Layer 1"
     inkscape:groupmode="layer"
     id="layer1">
    <path
       d="m 126.22799,52.728123 h -8.5 l -0.74999,0.75002 v 2.24999 h -15.20002 v 1.82499 h 0.475 v 1.55001 h -0.475 v 1.82502 h -1.59999 v -1.82502 h -0.475014 v -1.55001 h 0.475014 v -1.82499 h -15.2 v -2.24999 l -0.75001,-0.75002 H 75.728 l -0.75001,0.75002 v 2.24999 H 66.178 v 1.82499 h 0.47498 v 1.55001 H 66.178 v 1.82502 h -1.60001 v -1.82502 h -0.47501 v -1.55001 h 0.47501 v -1.82499 H 55.978 v 22.50001 h 90 v -22.50001 h -8.60002 v 1.82499 h 0.47501 v 1.55001 h -0.47501 v 1.82502 h -1.59999 v -1.82502 h -0.475 v -1.55001 h 0.475 v -1.82499 h -8.80001 v -2.24999 z"
       style="fill:none;stroke:#000000;stroke-width:0.264583"
       id="path36" />
    <g
       id="g1"
       transform="translate(-0.72350781,-2.6123135)">
      <path
         d="m 113.43426,88.644636 a 1.5000023,1.5000023 0 0 0 -3,0 1.5000023,1.5000023 0 0 0 3,0 z"
         style="fill:none;stroke:#000000;stroke-width:0.264583"
         id="path17" />
      <path
         d="M 103.73427,108.64462 V 86.144606 h 4.99999 v -2.24999 l 0.74998,-0.74998 h 8.50001 l 0.75001,0.74998 v 2.24999 h 4.2 v 1.82502 h -0.47501 v 1.54998 h 0.47501 v 1.82502 h 1.59998 v -1.82502 h 0.47501 v -1.54998 h -0.47501 v -1.82502 h 4.20003 v -2.24999 l 0.74998,-0.74998 h 8.50001 l 0.74999,0.74998 v 2.24999 h 5.00001 v 8.75001 h 2.24999 l 0.74999,0.74999 v 3.50002 l -0.74999,0.74998 h -2.24999 v 8.750014 z"
         style="fill:none;stroke:#000000;stroke-width:0.264583"
         id="path21" />
      <path
         d="m 113.43426,106.14463 a 1.5000023,1.5000023 0 0 0 -3,0 1.5000023,1.5000023 0 0 0 3,0 z"
         style="fill:none;stroke:#000000;stroke-width:0.264583"
         id="path24" />
      <path
         d="m 123.38426,97.394616 a 1.7500075,1.7500075 0 0 0 -3.50001,0 1.7500075,1.7500075 0 0 0 3.50001,0 z"
         style="fill:none;stroke:#000000;stroke-width:0.264583"
         id="path42" />
      <path
         d="m 135.43426,97.394616 a 2.9000053,2.9000053 0 0 0 -5.80001,0 2.9000053,2.9000053 0 0 0 5.80001,0 z"
         style="fill:none;stroke:#000000;stroke-width:0.264583"
         id="path44" />
    </g>
    <g
       id="g2"
       transform="matrix(-1,0,0,1,202.35523,-2.6123135)">
      <path
         d="m 113.43426,88.644636 a 1.5000023,1.5000023 0 0 0 -3,0 1.5000023,1.5000023 0 0 0 3,0 z"
         style="fill:none;stroke:#000000;stroke-width:0.264583"
         id="path17-2" />
      <path
         d="M 103.73427,108.64462 V 86.144606 h 4.99999 v -2.24999 l 0.74998,-0.74998 h 8.50001 l 0.75001,0.74998 v 2.24999 h 4.2 v 1.82502 h -0.47501 v 1.54998 h 0.47501 v 1.82502 h 1.59998 v -1.82502 h 0.47501 v -1.54998 h -0.47501 v -1.82502 h 4.20003 v -2.24999 l 0.74998,-0.74998 h 8.50001 l 0.74999,0.74998 v 2.24999 h 5.00001 v 8.75001 h 2.24999 l 0.74999,0.74999 v 3.50002 l -0.74999,0.74998 h -2.24999 v 8.750014 z"
         style="fill:none;stroke:#000000;stroke-width:0.264583"
         id="path21-0" />
      <path
         d="m 113.43426,106.14463 a 1.5000023,1.5000023 0 0 0 -3,0 1.5000023,1.5000023 0 0 0 3,0 z"
         style="fill:none;stroke:#000000;stroke-width:0.264583"
         id="path24-6" />
      <path
         d="m 123.38426,97.394616 a 1.7500075,1.7500075 0 0 0 -3.50001,0 1.7500075,1.7500075 0 0 0 3.50001,0 z"
         style="fill:none;stroke:#000000;stroke-width:0.264583"
         id="path42-1" />
      <path
         d="m 135.43426,97.394616 a 2.9000053,2.9000053 0 0 0 -5.80001,0 2.9000053,2.9000053 0 0 0 5.80001,0 z"
         style="fill:none;stroke:#000000;stroke-width:0.264583"
         id="path44-2" />
    </g>
  </g>
</svg>
