0
SECTION
2
HEADER
9
$INSUNITS
70
4
9
$ACADVER
1
AC1014
9
$HANDSEED
5
FFFF
0
ENDSEC
0
SECTION
2
TABLES
0
TABLE
2
VPORT
5
8
100
AcDbSymbolTable
0
ENDTAB
0
TABLE
2
LTYPE
5
5
100
AcDbSymbolTable
0
LTYPE
5
14
100
AcDbSymbolTableRecord
100
AcDbLinetypeTableRecord
2
BYBLOCK
70
0
0
LTYPE
5
15
100
AcDbSymbolTableRecord
100
AcDbLinetypeTableRecord
2
BYLAYER
70
0
0
ENDTAB
0
TABLE
2
LAYER
5
2
100
AcDbSymbolTable
70
2
0
LAYER
5
50
100
AcDbSymbolTableRecord
100
AcDbLayerTableRecord
2
0
70
0
6
CONTINUOUS
0
ENDTAB
0
TABLE
2
STYLE
5
3
100
AcDbSymbolTable
70
1
0
STYLE
5
11
100
AcDbSymbolTableRecord
100
AcDbTextStyleTableRecord
2
STANDARD
70
0
0
ENDTAB
0
TABLE
2
VIEW
5
6
100
AcDbSymbolTable
70
0
0
ENDTAB
0
TABLE
2
UCS
5
7
100
AcDbSymbolTable
70
0
0
ENDTAB
0
TABLE
2
APPID
5
9
100
AcDbSymbolTable
70
2
0
APPID
5
12
100
AcDbSymbolTableRecord
100
AcDbRegAppTableRecord
2
ACAD
70
0
0
ENDTAB
0
TABLE
2
DIMSTYLE
5
A
100
AcDbSymbolTable
70
1
0
ENDTAB
0
TABLE
2
BLOCK_RECORD
5
1
100
AcDbSymbolTable
70
1
0
BLOCK_RECORD
5
1F
100
AcDbSymbolTableRecord
100
AcDbBlockTableRecord
2
*MODEL_SPACE
0
BLOCK_RECORD
5
1B
100
AcDbSymbolTableRecord
100
AcDbBlockTableRecord
2
*PAPER_SPACE
0
ENDTAB
0
ENDSEC
0
SECTION
2
BLOCKS
0
BLOCK
5
20
100
AcDbEntity
100
AcDbBlockBegin
2
*MODEL_SPACE
0
ENDBLK
5
21
100
AcDbEntity
100
AcDbBlockEnd
0
BLOCK
5
1C
100
AcDbEntity
100
AcDbBlockBegin
2
*PAPER_SPACE
0
ENDBLK
5
1D
100
AcDbEntity
100
AcDbBlockEnd
0
ENDSEC
0
SECTION
2
ENTITIES
0
LWPOLYLINE
5
100
100
AcDbEntity
8
0
100
AcDbPolyline
90
4
70
1
43
0.0
10
346.51795920983028
20
-158.75096115001605
10
358.51795920983028
20
-158.75096115001605
10
358.51795920983028
20
-161.750961150016
10
346.51795920983028
20
-161.750961150016
0
LWPOLYLINE
5
101
100
AcDbEntity
8
0
100
AcDbPolyline
90
4
70
1
43
0.0
10
401.51795920983028
20
-194.75096115001605
10
401.51795920983028
20
-206.750961150016
10
398.51795920983028
20
-206.750961150016
10
398.51795920983028
20
-194.75096115001605
0
LWPOLYLINE
5
102
100
AcDbEntity
8
0
100
AcDbPolyline
90
4
70
1
43
0.0
10
368.51795920983028
20
-194.75096115001605
10
371.51795920983028
20
-194.75096115001605
10
371.51795920983028
20
-206.750961150016
10
368.51795920983028
20
-206.750961150016
0
LWPOLYLINE
5
103
100
AcDbEntity
8
0
100
AcDbPolyline
90
4
70
1
43
0.0
10
400.01795920983028
20
-177.55096115001604
10
410.01795920983028
20
-177.55096115001604
10
410.01795920983028
20
-174.55096115001601
10
400.01795920983028
20
-174.55096115001601
0
LWPOLYLINE
5
104
100
AcDbEntity
8
0
100
AcDbPolyline
90
4
70
1
43
0.0
10
298.01795920983028
20
-175.25096115001602
10
301.01795920983028
20
-175.25096115001602
10
301.01795920983028
20
-187.25096115001605
10
298.01795920983028
20
-187.25096115001605
0
CIRCLE
5
105
100
AcDbEntity
8
0
100
AcDbCircle
10
310.01795920983028
20
-185.74096115001598
30
0
40
1.5000000000000002
210
0
220
0
230
1
0
CIRCLE
5
106
100
AcDbEntity
8
0
100
AcDbCircle
10
334.21795920983027
20
-185.74096115001598
30
0
40
1.5000000000000013
210
0
220
0
230
1
0
LWPOLYLINE
5
107
100
AcDbEntity
8
0
100
AcDbPolyline
90
4
70
1
43
0.0
10
326.51795920983028
20
-161.75096115001605
10
314.51795920983028
20
-161.75096115001605
10
314.51795920983028
20
-158.75096115001605
10
326.51795920983028
20
-158.75096115001605
0
CIRCLE
5
108
100
AcDbEntity
8
0
100
AcDbCircle
10
299.51795920983028
20
-160.25096115001602
30
0
40
1.2500000000000098
210
0
220
0
230
1
0
CIRCLE
5
109
100
AcDbEntity
8
0
100
AcDbCircle
10
334.21795920983027
20
-215.76096115001599
30
0
40
1.4999999999999989
210
0
220
0
230
1
0
LWPOLYLINE
5
110
100
AcDbEntity
8
0
100
AcDbPolyline
90
4
70
1
43
0.0
10
410.01795920983028
20
-226.95096115001604
10
400.01795920983028
20
-226.95096115001604
10
400.01795920983028
20
-223.95096115001604
10
410.01795920983028
20
-223.95096115001604
0
LWPOLYLINE
5
111
100
AcDbEntity
8
0
100
AcDbPolyline
90
4
70
1
43
0.0
10
346.51795920983028
20
-239.75096115001605
10
346.51795920983028
20
-242.75096115001602
10
358.51795920983028
20
-242.75096115001602
10
358.51795920983028
20
-239.75096115001605
0
CIRCLE
5
112
100
AcDbEntity
8
0
100
AcDbCircle
10
403.21795920983027
20
-268.13980118638148
30
0
40
1.5000000000000022
210
0
220
0
230
1
0
LWPOLYLINE
5
113
100
AcDbEntity
8
0
100
AcDbPolyline
90
4
70
1
43
0.0
10
326.51795920983028
20
-239.75096115001602
10
314.51795920983028
20
-239.75096115001602
10
314.51795920983028
20
-242.75096115001602
10
326.51795920983028
20
-242.75096115001602
0
CIRCLE
5
114
100
AcDbEntity
8
0
100
AcDbCircle
10
310.01795920983028
20
-215.76096115001599
30
0
40
1.4999999999999949
210
0
220
0
230
1
0
LWPOLYLINE
5
115
100
AcDbEntity
8
0
100
AcDbPolyline
90
4
70
1
43
0.0
10
301.01795920983028
20
-226.25096115001605
10
301.01795920983028
20
-214.250961150016
10
298.01795920983028
20
-214.250961150016
10
298.01795920983028
20
-226.25096115001605
0
LWPOLYLINE
5
116
100
AcDbEntity
8
0
100
AcDbPolyline
90
34
70
1
43
0.0
10
395.01795920983028
20
-288.13980118638153
10
395.01795920983022
20
-265.63980118638148
10
400.01795920983028
20
-265.63980118638148
10
400.01795920983028
20
-263.38980118638142
10
400.76795920983034
20
-262.63980118638142
10
409.26795920983022
20
-262.63980118638142
10
410.01795920983028
20
-263.38980118638142
10
410.01795920983028
20
-265.63980118638148
10
414.21795920983027
20
-265.63980118638148
10
414.21795920983027
20
-267.46480118638152
10
413.7429592098303
20
-267.46480118638152
10
413.7429592098303
20
-269.01480118638153
10
414.21795920983027
20
-269.01480118638153
10
414.21795920983027
20
-270.83980118638152
10
415.81795920983029
20
-270.83980118638152
10
415.81795920983029
20
-269.01480118638153
10
416.29295920983026
20
-269.01480118638153
10
416.29295920983026
20
-267.46480118638152
10
415.81795920983029
20
-267.46480118638152
10
415.81795920983029
20
-265.63980118638148
10
420.01795920983028
20
-265.63980118638148
10
420.01795920983028
20
-263.38980118638142
10
420.76795920983034
20
-262.63980118638142
10
429.26795920983022
20
-262.63980118638142
10
430.01795920983028
20
-263.38980118638142
10
430.01795920983028
20
-265.63980118638148
10
435.01795920983028
20
-265.63980118638148
10
435.01795920983028
20
-274.38980118638148
10
437.26795920983022
20
-274.38980118638148
10
438.01795920983022
20
-275.13980118638148
10
438.01795920983022
20
-278.63980118638148
10
437.26795920983022
20
-279.38980118638148
10
435.01795920983028
20
-279.38980118638148
10
435.01795920983028
20
-288.13980118638153
0
CIRCLE
5
117
100
AcDbEntity
8
0
100
AcDbCircle
10
370.01795920983028
20
-241.25096115001605
30
0
40
1.500000000000006
210
0
220
0
230
1
0
CIRCLE
5
118
100
AcDbEntity
8
0
100
AcDbCircle
10
299.51795920983028
20
-241.25096115001605
30
0
40
1.2500000000000098
210
0
220
0
230
1
0
CIRCLE
5
119
100
AcDbEntity
8
0
100
AcDbCircle
10
403.21795920983027
20
-285.63980118638148
30
0
40
1.5000000000000022
210
0
220
0
230
1
0
LWPOLYLINE
5
120
100
AcDbEntity
8
0
100
AcDbPolyline
90
8
70
1
43
0.0
10
295.01795920983028
20
-242.75096115001602
10
295.01795920983028
20
-158.75096115001605
42
-0.41421356237309681
10
298.01795920983034
20
-155.75096115001605
10
442.01795920983034
20
-155.75096115001605
42
-0.41421356237309681
10
445.01795920983028
20
-158.75096115001605
10
445.01795920983028
20
-242.75096115001602
42
-0.4142135623730846
10
442.01795920983034
20
-245.75096115001602
10
298.01795920983028
20
-245.75096115001602
42
-0.41421356237308815
0
CIRCLE
5
121
100
AcDbEntity
8
0
100
AcDbCircle
10
436.51795920983011
20
-200.75096115001602
30
0
40
0.80000000000000793
210
0
220
0
230
1
0
CIRCLE
5
122
100
AcDbEntity
8
0
100
AcDbCircle
10
415.01795920983028
20
-225.45096115001604
30
0
40
0.80000000000001292
210
0
220
0
230
1
0
LWPOLYLINE
5
123
100
AcDbEntity
8
0
100
AcDbPolyline
90
4
70
1
43
0.0
10
431.51795920983028
20
-194.75096115001605
10
431.51795920983028
20
-206.750961150016
10
428.51795920983028
20
-206.750961150016
10
428.51795920983028
20
-194.75096115001605
0
LWPOLYLINE
5
124
100
AcDbEntity
8
0
100
AcDbPolyline
90
4
70
1
43
0.0
10
420.01795920983028
20
-223.95096115001604
10
430.01795920983028
20
-223.95096115001604
10
430.01795920983028
20
-226.95096115001604
10
420.01795920983028
20
-226.95096115001604
0
LWPOLYLINE
5
125
100
AcDbEntity
8
0
100
AcDbPolyline
90
4
70
1
43
0.0
10
435.01795920983028
20
-174.75096115001605
10
438.01795920983022
20
-174.75096115001605
10
438.01795920983022
20
-184.75096115001605
10
435.01795920983028
20
-184.75096115001605
0
LWPOLYLINE
5
126
100
AcDbEntity
8
0
100
AcDbPolyline
90
4
70
1
43
0.0
10
430.01795920983028
20
-177.55096115001604
10
430.01795920983028
20
-174.55096115001601
10
420.01795920983028
20
-174.55096115001601
10
420.01795920983028
20
-177.55096115001604
0
CIRCLE
5
127
100
AcDbEntity
8
0
100
AcDbCircle
10
436.51795920983028
20
-165.15096115001603
30
0
40
0.80000000000000415
210
0
220
0
230
1
0
CIRCLE
5
128
100
AcDbEntity
8
0
100
AcDbCircle
10
440.51795920983022
20
-160.25096115001602
30
0
40
1.2499999999999973
210
0
220
0
230
1
0
CIRCLE
5
129
100
AcDbEntity
8
0
100
AcDbCircle
10
415.01795920983028
20
-176.05096115001601
30
0
40
0.80000000000001292
210
0
220
0
230
1
0
LWPOLYLINE
5
130
100
AcDbEntity
8
0
100
AcDbPolyline
90
4
70
1
43
0.0
10
435.01795920983028
20
-226.750961150016
10
438.01795920983022
20
-226.750961150016
10
438.01795920983022
20
-216.750961150016
10
435.01795920983028
20
-216.750961150016
0
LWPOLYLINE
5
131
100
AcDbEntity
8
0
100
AcDbPolyline
90
52
70
1
43
0.0
10
482.66429997201624
20
-175.50096115001605
10
482.66429997201624
20
-184.00096115001605
10
483.41429997201629
20
-184.75096115001605
10
485.66429997201624
20
-184.75096115001605
10
485.66429997201624
20
-199.95096115001601
10
487.48929997201628
20
-199.95096115001601
10
487.48929997201628
20
-199.47596115001602
10
489.03929997201629
20
-199.47596115001602
10
489.03929997201629
20
-199.95096115001601
10
490.86429997201628
20
-199.95096115001601
10
490.86429997201628
20
-201.55096115001606
10
489.03929997201629
20
-201.55096115001606
10
489.03929997201629
20
-202.02596115001603
10
487.48929997201628
20
-202.02596115001603
10
487.48929997201628
20
-201.55096115001606
10
485.66429997201624
20
-201.55096115001606
10
485.66429997201624
20
-216.750961150016
10
483.41429997201629
20
-216.750961150016
10
482.66429997201624
20
-217.500961150016
10
482.66429997201624
20
-226.00096115001602
10
483.41429997201629
20
-226.750961150016
10
485.66429997201624
20
-226.750961150016
10
485.66429997201624
20
-235.55096115001604
10
487.48929997201628
20
-235.55096115001604
10
487.48929997201628
20
-235.07596115001604
10
489.03929997201629
20
-235.07596115001604
10
489.03929997201629
20
-235.55096115001604
10
490.86429997201628
20
-235.55096115001604
10
490.86429997201628
20
-237.150961150016
10
489.03929997201629
20
-237.150961150016
10
489.03929997201629
20
-237.625961150016
10
487.48929997201628
20
-237.625961150016
10
487.48929997201628
20
-237.150961150016
10
485.66429997201624
20
-237.150961150016
10
485.66429997201624
20
-245.75096115001602
10
508.16429997201624
20
-245.75096115001602
10
508.16429997201624
20
-155.75096115001602
10
485.66429997201624
20
-155.75096115001602
10
485.66429997201624
20
-164.35096115001608
10
487.48929997201628
20
-164.35096115001608
10
487.48929997201628
20
-163.87596115001605
10
489.03929997201629
20
-163.87596115001605
10
489.03929997201629
20
-164.35096115001608
10
490.86429997201628
20
-164.35096115001608
10
490.86429997201628
20
-165.95096115001604
10
489.03929997201629
20
-165.95096115001604
10
489.03929997201629
20
-166.42596115001601
10
487.48929997201628
20
-166.42596115001601
10
487.48929997201628
20
-165.95096115001604
10
485.66429997201624
20
-165.95096115001604
10
485.66429997201624
20
-174.75096115001605
10
483.41429997201629
20
-174.75096115001605
0
LWPOLYLINE
5
132
100
AcDbEntity
8
0
100
AcDbPolyline
90
4
70
1
43
0.0
10
499.41429997201624
20
-166.65096115001603
10
494.41429997201624
20
-166.65096115001603
10
494.41429997201624
20
-163.65096115001606
10
499.41429997201624
20
-163.65096115001606
0
LWPOLYLINE
5
133
100
AcDbEntity
8
0
100
AcDbPolyline
90
4
70
1
43
0.0
10
499.41429997201624
20
-223.95096115001604
10
494.41429997201624
20
-223.95096115001604
10
494.41429997201624
20
-226.95096115001607
10
499.41429997201624
20
-226.95096115001607
0
LWPOLYLINE
5
134
100
AcDbEntity
8
0
100
AcDbPolyline
90
4
70
1
43
0.0
10
499.41429997201624
20
-237.85096115001602
10
499.41429997201624
20
-234.85096115001602
10
494.41429997201624
20
-234.85096115001602
10
494.41429997201624
20
-237.85096115001602
0
LWPOLYLINE
5
135
100
AcDbEntity
8
0
100
AcDbPolyline
90
4
70
1
43
0.0
10
494.41429997201624
20
-177.55096115001604
10
494.41429997201624
20
-174.55096115001598
10
499.41429997201624
20
-174.55096115001598
10
499.41429997201624
20
-177.55096115001604
0
CIRCLE
5
136
100
AcDbEntity
8
0
100
AcDbCircle
10
370.01795920983028
20
-160.25096115001602
30
0
40
1.500000000000006
210
0
220
0
230
1
0
CIRCLE
5
137
100
AcDbEntity
8
0
100
AcDbCircle
10
412.91795920983026
20
-276.88980118638148
30
0
40
1.7500000000000002
210
0
220
0
230
1
0
CIRCLE
5
138
100
AcDbEntity
8
0
100
AcDbCircle
10
436.51795920983028
20
-236.35096115001602
30
0
40
0.80000000000000415
210
0
220
0
230
1
0
CIRCLE
5
139
100
AcDbEntity
8
0
100
AcDbCircle
10
423.81795920983024
20
-276.88980118638148
30
0
40
2.8999999999999999
210
0
220
0
230
1
0
CIRCLE
5
140
100
AcDbEntity
8
0
100
AcDbCircle
10
440.51795920983022
20
-241.25096115001605
30
0
40
1.2499999999999973
210
0
220
0
230
1
0
ENDSEC
0
SECTION
2
OBJECTS
0
DICTIONARY
5
C
100
AcDbDictionary
3
ACAD_GROUP
350
D
3
ACAD_MLINESTYLE
350
17
0
DICTIONARY
5
D
100
AcDbDictionary
0
DICTIONARY
5
1A
330
C
100
AcDbDictionary
0
DICTIONARY
5
17
100
AcDbDictionary
0
ENDSEC
0
EOF
